<svg id="Layer_1" data-name="Layer 1" xmlns="http://www.w3.org/2000/svg" viewBox="0 0 278.39 252.17"><defs><style>.cls-1{fill:#39ff88;}</style></defs><path class="cls-1" d="M386.61,359.32c-.2.05-.44,0-.62,0a12.31,12.31,0,0,0-2.59,1.3c-.27.21,0,1.09,0,1.73-1.61-1.31-2.74.17-3.93.68a2.93,2.93,0,0,1-.24,1.13c-.13.17-.6.18-.88.12a5.66,5.66,0,0,1-1.08-.46l-.41,1.17c-1.3.18-2.57.32-3.83.52a3.68,3.68,0,0,0-2.15,2.59c-1.63-1.13-2.45.94-3.91.85.78,1.23-.37,1.17-.68,1.48-.49-.16-.89-.44-1.18-.35s-.42.55-.46.6a17.8,17.8,0,0,1-2.81.6c-1.07.07-1.62,1-2.45,1.28s-1.24.64-.69,1.64c-1.87-1-1.86-1-2.53.87a10.94,10.94,0,0,1-.66,1.27c-.8,1.38-.43,2.28,1.13,2.66,1.27.3,2.55.57,3.82.85-2.46,1.15-4.67,3.38-7.47,1.33a12.61,12.61,0,0,0-.7,1.24,2.69,2.69,0,0,0-.38,1.32c.17,1.05-.39,1.52-1.19,1.9a23,23,0,0,0-2.36,1.08,2.79,2.79,0,0,1-3.82-.32c-.17-.15-.37-.25-.55-.38a1.77,1.77,0,0,0,.12,1.27c.38.92.83,1.82,1.19,2.75.57,1.48.23,2.25-1.22,2.88s-2.07.4-2.81-1c-.6-1.17-1.19-2.35-1.78-3.52h-.41a8.55,8.55,0,0,0-.63,2.88c.21,1.38-.08,2.16-1.42,2.56a7.24,7.24,0,0,0-1.06.49,61.29,61.29,0,0,1-15.61,5.49c-1.92.35-4.07.12-5.33,2.15-.07.12-.3.17-.46.23l-3.26,1.28c-3.89,1.52-8,2.36-11.8,4.17-4.58,2.17-9.34,3.94-14,5.87a11.13,11.13,0,0,1-2.11.63c-1.88.37-2.85-.1-3.66-1.84-1.06-2.28-2.09-4.57-3.06-6.89a5.81,5.81,0,0,1,.81-6.12c.49-.65,1-1.26,1.53-1.89-.29-.9-1.2-1.73-.11-2.7,2.13-1.9,4.21-3.85,6.34-5.75.29-.27.84-.58,1.12-.47,1.06.39,1.09-.36,1-.91a2.94,2.94,0,0,1,1.05-2.77c1.38-1.44,2.64-3,4.15-4.29,1.78-1.52,1.19-3.34.85-5.06a19.1,19.1,0,0,0-1.6-4.65c-1.45-3-.48-5.33,1.61-7.5l.17-.19c1-1.08,2-2.14,1.39-3.81-.06-.2.16-.57.35-.76a9.23,9.23,0,0,1,1.45-1.28c.65-.44,1.31-1.13,2.15-.23.1.11.58,0,.78-.14,1.35-.94,2.73-1.85,4-2.91a4.26,4.26,0,0,1,4.32-1c2.14.67,4.29,1.28,6.48,1.93,1.24-3.8,2.43-7.51,3.65-11.21a7.84,7.84,0,0,1,.92-2c1.49-2.14,3.73-1.95,4.82.4q2,4.31,3.89,8.66c.39.89.85,1.17,1.8.76,1.79-.77,3.61-1.49,5.44-2.14a5.73,5.73,0,0,0,3.71-7.19c-.93-3.28-2-6.53-3-9.81-.47-1.54,0-2.17,1.6-1.92a2.22,2.22,0,0,1,1.4,1.11,35.86,35.86,0,0,1,1.83,4.71c.79,2.65,1.48,5.33,2.14,8,.12.53.08,1.49-.23,1.67-1.73,1-1.92,3-3.32,4.26,4.08,2.53,5.61,6.63,7.62,10.42.16-.79.18-1.56.29-2.31a3.86,3.86,0,0,1,.45-1,3.41,3.41,0,0,1,1.06.6,8.17,8.17,0,0,1,.79,1.51l1.45-1.33-.51,2.95.26.13,1.36-1.91-.21-.06.79-2.08,1.17,1.39.64-1.26,3.75-1.2-.61-1.57,2.5.29c.34-.41.6-1,1-1.14a28.81,28.81,0,0,1,3.21-.76c-.28-1.57-.14-1.64,1.77-1l.77-.54-.4-.74a7.13,7.13,0,0,0,2.6-.18c.61-.31.92-1.22,1.36-1.86l-.29-.24,1.25-.56,1.08.79.6-1.27c1.41.19,2.94.26,3.58-1.73.08-.25.76-.35,1.18-.43s.91,0,1.33-.09a12.31,12.31,0,0,0,2.46-.92c.64-.36,1.56-.73,1-1.8l1.11-.7,1.29.65.35-.88,3.64-.87-.26-1.5,2.42.21.34-.81,4.07-.91-.57-1.26,1.54-.69.87,1.32.56-1.63c3-.23,3.72-.64,3.46-2.06.57-.46,1.11-.79,1.74,0,.1.13.59,0,.87-.06s.61-.45.94-.5c2.14-.32,2.94-.95,2.93-2.77l2.44.2-.09-.9,1.86.34,1.49-.86c.19-.11.57-.24.56-.32-.17-1.36.82-1,1.38-.82,1.07.35,1.11-.29,1.16-.71l4-.91-.33-1.41,2.89.15-.17-1.32c1.8,1.13,3.47,1.88,5.37,1,.29.23.89.51.86.7-.23,1.87,1,.86,1.52.89l2,6.56-1.07,0L432,334l-3.94,2.79.49,1.08-1,.77c-1.14-.93-1.29-.87-1.48.1l-3.81,1.7c.91,1.06-.31,1.23-.67,1.82l-1.35-.95-.05,1.51c-2.71-1-3.32,1.54-4.72,2.68l-1.16-1-.33,1.14-3.8,1.41c1.06,1,.15,1.18-.36,1.29a6.06,6.06,0,0,1-1.76-.12l-.08,1-.23-.37c-.88.37-1.78.7-2.64,1.12s-1.39,1.16-2,1.12c-1.36-.09-1.45.53-1.3,1.26l-4,.73.73,1.62-3.11.08.42,1.19c-1.65-1.35-2.78.19-4.17.55l.33,1.2-3.19-.21.64,1.08C388.46,358.8,387.54,359.07,386.61,359.32Zm-95.7,34.41c-1.14,1.16-2.24,2.35-3.38,3.51a4.89,4.89,0,0,1-1.36,1.14,4,4,0,0,0-2.31,2.13c-.13.34-.6.57-1,.78s-1,.36-1.37.71c-2.14,2.16-2.49,1.67-1.11,4.66.54,1.18,1.12,2.34,1.76,3.47.55,1,1.07.92,1.9.21a10.53,10.53,0,0,1,2.39-1.49c4.92-2.27,9.85-4.49,14.78-6.73l1.32-.59c-1.24-3.72-2.47-7.37-3.69-11l-2.68.71a5.6,5.6,0,0,1,.1,1.45c-.23,1.09-.61,2.16-.85,3.25-.2.9-.77,1.21-1.51.86a12.52,12.52,0,0,1-2.71-1.71c-.22-.18.07-1,.12-1.53C291.25,393.58,291,393.6,290.91,393.73Zm28.4-38.14,4-1.78-2-4.4C320.61,351.58,320,353.43,319.31,355.59Z" transform="translate(-154.21 -162.09)"/><path class="cls-1" d="M425.26,214.43a6.88,6.88,0,0,0,1.38-1.84c-.65-.26-1.33-.79-1.95-.74a81.4,81.4,0,0,0-9.75,1.21c-2.37.51-5,1.21-6.79,2.67-3.08,2.47-5.9,2.34-9.4,1.24a199.64,199.64,0,0,0-47-9.2,18.41,18.41,0,0,1-4.3-.7c.08-.87.1-1.71.2-2.61.14-1.19.73-2.29.23-3.47-1-2.26-3.71-1.07-5.45-.73a25.63,25.63,0,0,1-5.47.22,20.56,20.56,0,0,1-5-1.17,12.73,12.73,0,0,1-2.69-1c-.68-.4-1.29-.88-2-1.22a10.28,10.28,0,0,0-4.87-.81,1,1,0,0,0-.31.08,4.85,4.85,0,0,1-1.38-.76,2.76,2.76,0,0,0,.43-.2h0c.49-.16.73-.52,1.16-.75s.83-.22,1.2-.38a10,10,0,0,0,.92-.48,13.31,13.31,0,0,0,2.26-1.69,12.11,12.11,0,0,1,1.94-1.29,3.17,3.17,0,0,0,1.15-4.41,4,4,0,0,0-2-1.37,22.82,22.82,0,0,0-2.72-1.11,14,14,0,0,0-2-.39,35.42,35.42,0,0,0,0-3.57c0-.48-.07-.95-.13-1.41-2.34-7.91-8.49-12.71-17.75-15.88a9.11,9.11,0,0,0-10.88,3.43,70.12,70.12,0,0,0-4.34,7.1,8.36,8.36,0,0,1-2.82,3.33,14.16,14.16,0,0,1-3.45,6.06c-2.6,2.35-6,2.2-9.34,2.25a14.61,14.61,0,0,1-3.42.77,33.33,33.33,0,0,0-4.15.36,15.38,15.38,0,0,0-4.42,2c-2.2,1.48-4.27,3.18-6.35,4.83l-.13,0a23.18,23.18,0,0,0-3.28,1.79,14.41,14.41,0,0,1-2.68,1.68c-1.92.79-3.73,1.84-5.62,2.7a21,21,0,0,1-3,.72,17.91,17.91,0,0,0-2.12,1.12c-.91.42-1.81.43-2.75.77a13.06,13.06,0,0,1-2.59.77,20.26,20.26,0,0,1-2.08.59c-1,.06-1.31.5-2.15.85a16.12,16.12,0,0,1-2.81.39,8.94,8.94,0,0,0-2.4.81c-.15.09-.31.2-.46.31a1.51,1.51,0,0,0-.36.3,1.57,1.57,0,0,0-.58,1.32,11.58,11.58,0,0,0-.1,2.53c0,.81.05,1.6.1,2.38-4.49.7-9.37.52-13.4,2.27-13.4,5.8-26.55,12.16-39.64,18.62-3.62,1.79-7,3.7-11.14,3.64a3.29,3.29,0,0,0-3.67,2.78c-.7,3.28-1.84,6.47.37,9.72a4.33,4.33,0,0,1,.05,3.38c-1.2,3.25-1.3,3.21,2.26,3.2a21,21,0,0,1,2.38.09c4,.46,6.51-1.5,8.64-4.65a26.84,26.84,0,0,1,5.39-6.22c7.08-5.53,14.46-10.58,23.69-11.94,1.55-.23,3-1,4.56-1.37,7.76-1.68,15.52-3.31,23.29-4.94a10.48,10.48,0,0,0,1.58,1.25c1.36.86,1.34,2.66,2.69,3.67s2.58,1.84,3.33,3.54a1.2,1.2,0,0,0,1.09.63,3.9,3.9,0,0,0,2.88-2.34,11.43,11.43,0,0,1,1-1.79,6.81,6.81,0,0,1,2.5-1.52c1.84-.84,3.73-1.63,5.49-2.64q.27-.15.54-.27a3.93,3.93,0,0,1,.06.93,10.07,10.07,0,0,1-.39,2c-2.23,7.49-3.54,15.08-2.67,22.94a37.37,37.37,0,0,1,.21,6.85,7.38,7.38,0,0,1-1.39,4c-2,2.4-2.06,5-1.7,7.84.18,1.41.39,3.09-.19,4.26-1.54,3.07.45,5.52,1,8.2.29,1.49,1.15,2.88,1.33,4.36.86,7.09,1.59,14.19,2.35,21.28.22,2,.69,4.05.71,6a1.1,1.1,0,0,1,.09.14c4.31,9.11,5.37,19.23,9.1,28.54a1.88,1.88,0,0,1-.49,1.84,8.66,8.66,0,0,0-1.59,2.43c1.41.25,1.54,1.12.91,2.78a9.82,9.82,0,0,0-.24,3.88c.18,3.56.65,7.12.65,10.68s-.25,6.69,2.87,9.21c4.44,3.58,12.86,3.49,17.13-.54a4.1,4.1,0,0,0,.78-2.58c.18-3.23-.23-6.56.43-9.67,1.14-5.33,1.18-10.2-2.67-14.53a3.72,3.72,0,0,1-1.15-2.53c.11-.55.17-1.09.23-1.64a6.17,6.17,0,0,0-1.22,0,1.91,1.91,0,0,1-1.83-1.39,30.07,30.07,0,0,1-1-5.7,7,7,0,0,1-.3-1.73,42.17,42.17,0,0,1-1.71-6.25,58.29,58.29,0,0,1-1.08-8.11,21,21,0,0,1,.36-6.27,1.87,1.87,0,0,1,.57-1c0-1.48,0-3-.05-4.44,3.72-.69,7.2-1,10.47-2,2.5-.78,4.6-2.82,7.1-3.63,7.51-2.45,13.71-6.77,19.51-11.94a34.12,34.12,0,0,1,4.58-1.76c2.06-.62,3.77-1.93,5.7-2.85a55,55,0,0,0,6.62-4.18,7.38,7.38,0,0,1,3-1.52,12.9,12.9,0,0,1,2.15,0,1.36,1.36,0,0,0,1.38-.2c1.25-.5,1.28-2,1.23-3.29a13.81,13.81,0,0,0-.11-3.35c0-.19-.08-.38-.13-.58-.09-.8-.2-1.61-.35-2.41,1.51-1.33,3-2.66,4.49-4,4.71-4.36,8.19-3.81,10.88,1.84,1.24,2.59,2.62,5.13,4.05,7.62,4.06,7.07,8.07,14.18,12.34,21.12a32.7,32.7,0,0,0,5.86,6.94,5.91,5.91,0,0,1,2.29,4.78c0,1.79.23,4.07,1.31,5.25a87.27,87.27,0,0,0,8.93,7.89c1.64,1.35,3.9,1.63,5.14,0,3.07-4.08,5.75-8.45,8.49-12.76,1.16-1.82,1.87-3.95,3.13-5.68,3.74-5.13,7.64-10.14,11.5-15.18,2.49-3.25,2.44-6.5.44-10-1.21-2.1-2.88-3.2-4.64-3.28a88.23,88.23,0,0,1-7.33,5.51c-4.95,3.49-10.77,5.23-15.81,8.51a1.93,1.93,0,0,1-2.59-.68,45.91,45.91,0,0,1-4.49-7c-1.65-1.95-2.06-4.87-2.93-7.17-2.38-6.25-5.7-12.14-8.15-18.35a3.37,3.37,0,0,1-.82-2,1.77,1.77,0,0,0,0-.23c-.47-1.34-.91-2.69-1.27-4.07a1.74,1.74,0,0,1,.13-1.29,27.57,27.57,0,0,0-3-4.66,21.3,21.3,0,0,1-1.23-2.64,15.75,15.75,0,0,0-1.95-3c-.86-.93-2.21-1.46-2.94-2.47-3.23-4.43-7.52-4.7-12.27-3.35a96.9,96.9,0,0,0-15,5.55,2.63,2.63,0,0,0-2.1-1.26,1.19,1.19,0,0,0-.29-.18c-1.82-.67-4.64.88-6.23,1.63a15.31,15.31,0,0,0-3.22,2c-.93.76-2.07.93-3,1.66-2,1.51-4.23,2.59-6.13,4.26a13.84,13.84,0,0,0-2.54,3.11,13.11,13.11,0,0,1-1.48,2.06l-.07.06-1.22-.71a7.33,7.33,0,0,1,.77-1c4-3.76,6.88-7.92,5.87-13.85-.41-2.43,1.2-3.95,3-5.45a74.65,74.65,0,0,0,5.55-5.69l-.59-.73c.78,0,1.57-.11,2.35-.1,2.9,0,5.64.05,7.5-3l0,0a.91.91,0,0,0,.13.08,8.77,8.77,0,0,1,1.33.58c.43.3.68.77,1.15,1a8.57,8.57,0,0,0,1.56.42,14.32,14.32,0,0,1,1.94.92c1.11.53,1.68.91,2,2.11.62,2.48,2.56,2.44,4.39,1a12,12,0,0,0,2.37-1.82c.53-.65,1.18-1.12,1.76-1.72a17.06,17.06,0,0,1,1.44-1.5,37.51,37.51,0,0,0,4.61-.12,15.93,15.93,0,0,1,3.55.34c7.75,1.1,15.47,2.73,23.25,3.2,9.94.61,19.88.71,29.56,3.42a59.6,59.6,0,0,0,7,1.31c2,.32,3.93.38,5.14-1.89a2.66,2.66,0,0,1,2.25-1c2.5.4,4.95,1.14,7.44,1.61a6.32,6.32,0,0,0,2.16-.4c-.33-.73-.46-1.77-1-2.12-2-1.24-4.12-2.25-6.36-3.43,1.07-2.73,3.27-2.82,5.31-1.84,2.38,1.14,3.92.46,5.78-1.7l-4.75-3.38A30.2,30.2,0,0,0,425.26,214.43Z" transform="translate(-154.21 -162.09)"/></svg>